<svg width="22" height="18" viewBox="0 0 22 18" fill="none" xmlns="http://www.w3.org/2000/svg">
<path d="M0.767442 8.95349C0.767442 5.09479 0.767442 3.16493 1.9667 1.9667C3.16493 0.767442 5.09479 0.767442 8.95349 0.767442H13.0465C16.9052 0.767442 18.8351 0.767442 20.0333 1.9667C21.2326 3.16493 21.2326 5.09479 21.2326 8.95349C21.2326 12.8122 21.2326 14.742 20.0333 15.9403C18.8351 17.1395 16.9052 17.1395 13.0465 17.1395H8.95349C5.09479 17.1395 3.16493 17.1395 1.9667 15.9403C0.767442 14.742 0.767442 12.8122 0.767442 8.95349Z" stroke="#DADADA" stroke-width="1.5"/>
<path d="M11 6.90698V11M9.22772 7.93023L12.7723 9.97674M12.7723 7.93023L9.22772 9.97674M5.61051 6.90698V11M3.83721 7.93023L7.38177 9.97674M7.38177 7.93023L3.83721 9.97674M16.3905 6.90698V11M14.6182 7.93023L18.1628 9.97674M18.1628 7.93023L14.6172 9.97674" stroke="#DADADA" stroke-width="1.5" stroke-linecap="round"/>
</svg>
